# xmcd CD database file
#
# Track frame offsets:
#	150
#	13008
#	21557
#	31885
#	41995
#	53399
#	63827
#	74597
#	84783
#	93330
#	101109
#	111460
#	123579
#	133848
#	143606
#	155472
#	165355
#	176346
#	185532
#	196552
#	205904
#	214306
#	222361
#	231495
#	240632
#
# Disc length: 3425 seconds
#
# Revision: 0
# Processed by: cddbd v1.5.2PL0 Copyright (c) Steve Scherf et al.
# Submitted via: CDex 1.51
#
DISCID=650d5f19
DTITLE=Johnny Cash - The Rebel CD3
DYEAR=2013
DGENRE=Country
TTITLE0=Folsom prison blues
TTITLE1=Guess things happen that way
TTITLE2=Busted
TTITLE3=Girl in Saskatoon
TTITLE4=Seasons of my heart
TTITLE5=You win again
TTITLE6=Run softly,blue river
TTITLE7=Hey, porter
TTITLE8=I'll remember you
TTITLE9=Come in stranger
TTITLE10=The ways of a woman in love
TTITLE11=You're the nearest thing to heaven
TTITLE12=All over again
TTITLE13=What do I care?
TTITLE14=I srill miss someone
TTITLE15=It's just about time
TTITLE16=I just thought you'd like to know
TTITLE17=Delia's gone
TTITLE18=I forgot more than yuo'll ever know
TTITLE19=You remembered me
TTITLE20=I'm free from the chain gang now
TTITLE21=Let me down easy
TTITLE22=Sing it pretty, Sue
TTITLE23=Lost on the desert
TTITLE24=A boy named Sue (live)
EXTD=YEAR: 2013
EXTT0=
EXTT1=
EXTT2=
EXTT3=
EXTT4=
EXTT5=
EXTT6=
EXTT7=
EXTT8=
EXTT9=
EXTT10=
EXTT11=
EXTT12=
EXTT13=
EXTT14=
EXTT15=
EXTT16=
EXTT17=
EXTT18=
EXTT19=
EXTT20=
EXTT21=
EXTT22=
EXTT23=
EXTT24=
PLAYORDER=
